<svg id="Layer_1" data-name="Layer 1" xmlns="http://www.w3.org/2000/svg" xmlns:xlink="http://www.w3.org/1999/xlink" width="94.08" height="91.43" viewBox="0 0 94.08 91.43"><defs><style>.cls-1{fill:url(#linear-gradient);}.cls-2{fill:url(#linear-gradient-2);}.cls-3{fill:#ddb426;}</style><linearGradient id="linear-gradient" x1="46.94" y1="85.49" x2="48.69" y2="3.22" gradientUnits="userSpaceOnUse"><stop offset="0" stop-color="#ddb426"/><stop offset="0.22" stop-color="#dab527"/><stop offset="0.41" stop-color="#cfb929"/><stop offset="0.58" stop-color="#bdc02c"/><stop offset="0.75" stop-color="#a4ca31"/><stop offset="0.92" stop-color="#84d636"/><stop offset="1" stop-color="#71dd3a"/></linearGradient><linearGradient id="linear-gradient-2" x1="42.03" y1="85.39" x2="43.78" y2="3.11" xlink:href="#linear-gradient"/></defs><title>Artboard 2</title><path class="cls-1" d="M82.52,74.44,67.43,33.61c-5,1.31-11.68,3-26.72,7.17a51.22,51.22,0,0,0-8.13,3A32.54,32.54,0,0,0,16.11,61.91l-4.7,12.61H5.07v12H35A18.4,18.4,0,0,1,30.1,72.91c.66-9.46,8.77-17.17,35.13-22.37,0,0,7.29,24.26-13.34,36H89V74.79Z"/><path class="cls-2" d="M34.49,30.63a12.59,12.59,0,0,1,3.29-8.06,21.26,21.26,0,0,1,8.64-5.4c7.43-2.65,12.87-.41,15.32,1L57,5.28,37.35,4.93,24.74,38.76l10-2.95A27.84,27.84,0,0,1,34.49,30.63Z"/><path class="cls-3" d="M82.52,74.44,67.43,33.61c-5,1.31-11.68,3-26.72,7.17a51.22,51.22,0,0,0-8.13,3A32.54,32.54,0,0,0,16.11,61.91l-4.7,12.61H5.07v12H35A18.4,18.4,0,0,1,30.1,72.91c.66-9.46,8.77-17.17,35.13-22.37,0,0,7.29,24.26-13.34,36H89V74.79Z"/><path class="cls-3" d="M34.49,30.63a12.59,12.59,0,0,1,3.29-8.06,21.26,21.26,0,0,1,8.64-5.4c7.43-2.65,12.87-.41,15.32,1L57,5.28,37.35,4.93,24.74,38.76l10-2.95A27.84,27.84,0,0,1,34.49,30.63Z"/></svg>